<?xml version="1.0" encoding="UTF-8"?>
<svg width="2085px" height="1123px" viewBox="0 0 2085 1123" version="1.1" xmlns="http://www.w3.org/2000/svg" xmlns:xlink="http://www.w3.org/1999/xlink">
    <title>Dog</title>
    <g id="Page-1" stroke="none" stroke-width="1" fill="none" fill-rule="evenodd">
        <g id="Dog">
            <g id="Backleg" transform="translate(435.679541, 615.054000)" fill="#835C43">
                <path d="M25.0014592,44.819 C-33.7625408,239.596 0.225459155,354.256 244.457459,319.246 C256.326459,317.546 254.148459,351.556 236.784459,378.986 C206.590459,395.636 184.721459,425.016 223.370459,423.486 C275.713459,440.546 317.858459,308.696 313.627459,295.236 C299.879459,251.706 125.319459,309.576 246.134459,2.84217094e-14 L25.0014592,44.819" id="Right-leg"></path>
            </g>
            <g id="BackRearleg" transform="translate(1283.930000, 637.055000)" fill="#835C43">
                <path d="M0,111.105 C29.26,248.255 115.95,406.165 337.32,297.245 C348.08,291.955 354.33,337.245 346.31,368.695 C313.5,385.085 299.85,413.205 340.84,413.205 C395.89,413.205 386.93,278.495 386.93,263.305 C342.71,226.965 177.37,331.795 196.39,-5.68434189e-14 L0,111.105" id="RightRearleg"></path>
            </g>
            <g id="body" transform="translate(317.308443, 266.837508)">
                <path d="M6.7025567,97.8444916 C12.8845567,132.106492 19.2575567,175.917492 17.5745567,237.604492 C16.0355567,294.757492 30.5345567,441.402492 115.690557,514.012492 C293.837557,665.982492 654.631557,491.082492 890.481557,453.122492 C970.861557,439.202492 1028.64156,454.692492 1073.91156,470.192492 C1142.63156,493.722492 1182.52156,517.252492 1228.84156,437.862492 C1259.62156,368.367492 1272.31156,276.002492 1221.26156,181.156492 C1168.62156,83.3804916 1092.74156,73.8564916 984.201557,73.6234916 C943.241557,73.5364916 832.561557,100.589492 714.101557,127.642492 C580.441557,158.164492 436.878557,188.686492 372.334557,180.231492 C364.618557,179.247492 357.768557,177.838492 351.860557,175.917492 C272.726557,150.509492 248.678557,64.6794916 206.312557,21.3044916 C151.964557,-34.2665084 -5.7984433,28.6744916 6.7025567,97.8444916" id="Fill-3" fill="#95684C"></path>
                <path d="M329.437557,155.498492 C338.686557,161.000492 336.836557,170.308492 318.804557,180.332492 C271.461557,207.029492 151.773557,252.689492 21.9905567,265.202492 C14.5795567,265.662492 3.5155567,266.903492 2.4715567,258.954492 C0.520556695,247.694492 1.3625567,226.398492 0.950556695,212.310492 C0.329556695,196.313492 3.5695567,191.575492 19.2575567,190.250492 C120.082557,176.955492 184.067557,161.972492 267.320557,120.757492 C280.591557,115.029492 285.841557,115.924492 294.691557,124.135492 C303.384557,131.021492 320.367557,148.862492 329.437557,155.498492" id="Fill-17" fill="#5CAAB1"></path>
            </g>
            <g id="Face" transform="translate(0.607512, 0.135995)">
                <path d="M604.069488,172.598005 C604.654488,175.688005 605.239488,178.780005 605.573488,181.894005 C611.552488,238.963005 600.538488,280.745005 556.447488,322.227005 C527.751488,349.258005 481.745488,362.380005 448.234488,369.892005 C396.917488,381.379005 374.923488,428.298005 328.607488,396.840005 C256.595488,347.927005 32.0734879,357.254005 16.8634879,306.904005 C-20.8955121,181.823005 141.575488,178.624005 223.515488,147.452005 C250.194488,-1.71199543 497.647488,-51.8359954 569.019488,65.0240046 C581.670488,85.7530046 598.455488,139.934005 604.069488,172.598005" id="Fill-4" fill="#95684C"></path>
                <path d="M269.020488,149.733005 C270.435488,143.896005 273.247488,139.837005 276.605488,137.128005 C279.966488,134.429005 283.938488,133.114005 287.696488,133.115005 C289.705488,133.115005 291.645488,133.488005 293.415488,134.209005 C296.072488,135.302005 298.362488,137.124005 300.114488,139.928005 C301.852488,142.735005 303.073488,146.619005 303.078488,151.945005 C303.078488,152.856005 303.042488,153.808005 302.965488,154.802005 C302.707488,158.137005 305.202488,161.051005 308.537488,161.309005 C311.873488,161.567005 314.786488,159.072005 315.044488,155.737005 C315.144488,154.443005 315.194488,153.179005 315.194488,151.945005 C315.194488,147.143005 314.443488,142.776005 313.021488,138.918005 C310.901488,133.129005 307.218488,128.527005 302.711488,125.505005 C298.206488,122.471005 292.952488,120.997005 287.696488,121 C281.136488,121.001005 274.517488,123.272005 269.022488,127.679005 C263.522488,132.079005 259.211488,138.650005 257.240488,146.902005 C256.458488,150.155005 258.461488,153.426005 261.714488,154.207005 C264.967488,154.989005 268.238488,152.986005 269.020488,149.733005" id="Fill-5" fill="#403A36"></path>
                <path d="M100.623488,303.082005 C96.1244879,308.763005 89.5444879,313.583005 81.9464879,316.942005 C74.3534879,320.305005 65.7614879,322.205005 57.3374879,322.202005 C51.6704879,322.203005 46.0834879,321.348005 40.8984879,319.542005 C33.1164879,316.824005 26.2484879,312.025005 21.1084879,304.591005 C15.9774879,297.152005 12.5404879,286.977005 12.0604879,273.349005 C11.9934879,271.428005 10.3814879,269.925005 8.46048793,269.992005 C6.53848793,270.059005 5.03548793,271.671005 5.10248793,273.592005 C5.44448793,283.372005 7.22048793,291.770005 10.1544879,298.872005 C14.5444879,309.528005 21.5884879,317.217005 29.9184879,322.109005 C38.2494879,327.012005 47.7964879,329.164005 57.3374879,329.164005 C66.8014879,329.161005 76.2884879,327.056005 84.7644879,323.308005 C93.2364879,319.554005 100.718488,314.155005 106.077488,307.408005 C107.272488,305.902005 107.019488,303.713005 105.513488,302.518005 C104.007488,301.323005 101.818488,301.576005 100.623488,303.082005" id="Fill-6" fill="#403A36"></path>
                <path d="M0.167487931,231.850005 C-0.202512069,253.225005 -0.577512069,267.653005 6.33148793,274.443005 C12.2814879,280.297005 32.9394879,268.656005 40.9234879,262.211005 C58.6624879,247.902005 85.3774879,193.518005 59.3724879,195.762005 C33.9534879,197.963005 0.693487931,201.955005 0.167487931,231.850005" id="Fill-7" fill="#403A36"></path>
                <path d="M13.7354879,221.130005 C11.7954879,221.130005 10.1184879,220.716005 9.36948793,219.487005 C6.98248793,215.608005 15.9624879,211.634005 17.8664879,210.912005 C21.7274879,209.444005 25.6594879,208.520005 29.6334879,208.030005 C31.5564879,207.781005 33.5414879,207.495005 35.4624879,207.495005 C36.9034879,207.495005 38.3074879,207.656005 39.6224879,208.114005 C45.0224879,210.023005 39.3774879,214.248005 36.2804879,215.273005 C31.5904879,216.831005 27.1094879,218.305005 22.5324879,219.546005 C20.9014879,219.989005 16.9564879,221.130005 13.7354879,221.130005" id="Fill-8" fill="#615B57"></path>
                <path d="M596.038488,141.676005 C603.879488,153.778005 610.896488,166.368005 617.430488,178.111005 C636.739488,212.803005 670.059488,275.374005 671.748488,303.193005 C673.681488,335.056005 648.047488,343.947005 621.338488,355.798005 C604.547488,363.257005 586.682488,368.878005 569.019488,373.914005 C529.857488,385.079005 491.077488,396.171005 475.981488,350.750005 C463.951488,314.572005 456.122488,278.179005 454.619488,231.504005 C453.604488,200.028005 452.578488,163.408005 461.529488,132.750005 C475.563488,84.6910046 523.717488,73.1380046 556.417488,96.9470046 C572.062488,108.356005 584.916488,124.539005 596.038488,141.676005" id="Fill-15" fill="#8A5B45"></path>
            </g>
            <g id="FrontRearleg" transform="translate(1240.431530, 561.165000)">
                <path d="M37.9884703,62.75 C-53.3615297,192.875 42.3284703,352.045 92.6784703,389.535 C105.20847,398.845 87.9984703,512.515 55.5884703,510.175 C5.52847033,506.545 4.87847033,539.725 6.04847033,557.445 C46.6384703,560.925 46.7684703,559.635 84.5084703,557.445 C90.5684703,554.025 100.75847,542.215 113.65847,524.155 C186.47847,422.165 345.47847,120.684 331.95847,-1.13686838e-13 L37.9884703,62.75" fill="#95684C"></path>
                <path d="M29.5684703,554.345 C29.4584703,553.745 29.3984703,553.085 29.3984703,552.395 C29.3984703,550.685 29.7484703,548.715 30.3984703,546.675 C31.3684703,543.615 33.0084703,540.415 34.8884703,537.645 C36.7484703,534.885 38.8884703,532.535 40.6384703,531.185 C42.1684703,529.995 42.4384703,527.785 41.2484703,526.255 C40.0584703,524.725 37.8484703,524.445 36.3184703,525.645 C34.6084703,526.975 32.9584703,528.665 31.3684703,530.605 C28.9984703,533.525 26.7984703,537.025 25.1484703,540.755 C23.5084703,544.485 22.3884703,548.445 22.3784703,552.395 C22.3784703,553.465 22.4584703,554.545 22.6584703,555.605 C22.9984703,557.515 24.8284703,558.775 26.7384703,558.425 C28.6484703,558.085 29.9184703,556.255 29.5684703,554.345" id="Fill-10" fill="#7D583F"></path>
                <path d="M53.8084703,555.945 C53.6684703,555.155 53.5984703,554.345 53.5984703,553.515 C53.5884703,550.215 54.7284703,546.515 56.5584703,543.195 C58.3784703,539.875 60.8784703,536.945 63.2384703,535.115 C64.7684703,533.925 65.0484703,531.715 63.8484703,530.185 C62.6584703,528.655 60.4484703,528.385 58.9184703,529.575 C55.6684703,532.115 52.6784703,535.685 50.3984703,539.815 C48.1384703,543.945 46.5784703,548.655 46.5684703,553.515 C46.5684703,554.735 46.6684703,555.965 46.8884703,557.195 C47.2384703,559.105 49.0684703,560.365 50.9784703,560.025 C52.8884703,559.675 54.1584703,557.845 53.8084703,555.945" id="Fill-11" fill="#7D583F"></path>
            </g>
            <g id="FrontLeg" transform="translate(354.515000, 767.330000)">
                <path d="M230.632,2.84217094e-14 C140.93,63.21 141.55,182.58 122.289,241.3 C119.413,250.06 114.77,280.32 86.152,291.62 C62.392,301 2.936,293.46 2.84217094e-13,348.81 C30.933,352.65 57.963,349.92 86.093,348.81 C120.009,343.33 308.819,141.58 334.418,38.46 L230.632,2.84217094e-14" id="Fill-12" fill="#95684C"></path>
                <path d="M20,343.46 C19.98,343.24 19.969,343.01 19.969,342.77 C19.967,341.52 20.269,340.05 20.839,338.51 C21.689,336.21 23.132,333.79 24.765,331.73 C26.389,329.66 28.227,327.94 29.681,327.01 C30.891,326.22 31.236,324.6 30.451,323.39 C29.666,322.18 28.048,321.84 26.838,322.62 C25.419,323.55 24.013,324.76 22.651,326.2 C20.614,328.34 18.69,330.97 17.228,333.8 C15.776,336.64 14.757,339.68 14.746,342.77 C14.746,343.16 14.763,343.55 14.799,343.94 C14.932,345.38 16.205,346.43 17.641,346.3 C19.077,346.17 20.134,344.89 20,343.46" id="Fill-13" fill="#7D583F"></path>
                <path d="M40.503,346.19 C40.475,345.89 40.462,345.59 40.462,345.29 C40.452,342.75 41.46,339.91 43.071,337.38 C44.665,334.85 46.848,332.65 48.825,331.38 C50.034,330.59 50.378,328.97 49.592,327.76 C48.806,326.56 47.188,326.21 45.979,327 C43.258,328.77 40.665,331.43 38.658,334.58 C36.667,337.74 35.248,341.42 35.239,345.29 C35.239,345.75 35.259,346.21 35.302,346.67 C35.435,348.1 36.707,349.16 38.144,349.03 C39.58,348.89 40.636,347.62 40.503,346.19" id="Fill-14" fill="#7D583F"></path>
            </g>
            <g id="Tail" transform="translate(1510.777997, 419.534440)" fill="#95684C">
                <path d="M10.9220027,5.49855983 C10.9220027,5.49855983 11.5620027,5.56955983 12.8220027,5.71255983 C14.0720027,5.86755983 15.8620027,5.99955983 18.7420027,6.64955983 C24.2720027,7.82555983 31.8320027,9.68055983 41.1320027,13.3985598 C50.3520027,17.1105598 61.1720027,22.3195598 72.6520027,29.2355598 C84.1120027,36.1685598 96.5320027,44.4275598 109.352003,53.6755598 C122.122003,62.9735598 135.562003,73.0395598 149.542003,82.8305598 C163.392003,92.7245598 177.892003,102.33156 192.362003,109.83756 C199.622003,113.51456 206.772003,116.67656 213.712003,118.94356 C220.642003,121.06856 227.252003,122.48256 233.272003,122.79856 C245.402003,123.44356 255.222003,120.68656 266.282003,114.85056 C271.742003,111.79656 277.452003,108.07156 283.142003,103.48356 C285.992003,101.24556 288.842003,98.7515598 291.672003,96.1255598 L293.792003,94.1455598 L294.312003,93.6555598 L294.582003,93.4045598 C294.442003,93.5225598 294.542003,93.4405598 294.632003,93.3595598 C294.812003,93.2105598 294.992003,93.0605598 293.692003,94.1325598 L293.862003,93.9665598 L295.252003,92.6535598 C297.102003,90.9225598 298.892003,89.1265598 300.782003,87.4615598 L303.602003,84.9315598 L305.812003,82.8195598 C307.222003,81.4945598 308.612003,80.1465598 310.092003,78.9045598 L314.852003,74.7875598 C316.542003,73.2835598 318.292003,71.8465598 320.062003,70.4205598 C327.072003,64.5955598 334.762003,58.9985598 342.522003,53.2705598 C350.692003,47.3095598 358.712003,41.4495598 366.582003,35.7155598 C371.332003,32.3615598 376.042003,29.0555598 380.682003,25.7745598 C382.782003,24.4915598 384.882003,23.2085598 386.952003,21.9435598 C389.942003,20.1175598 392.932003,18.3685598 395.892003,16.7045598 C417.792003,5.25955983 439.152003,1.08855983 457.822003,0.175559832 C476.542003,-0.647440168 492.662003,1.53555983 506.322003,4.37655983 C519.982003,7.28855983 531.202003,11.0415598 540.252003,14.3535598 C549.262003,17.8015598 556.112003,20.7205598 560.682003,22.9945598 C565.262003,25.1895598 567.702003,26.3595598 567.702003,26.3595598 C572.582003,28.7105598 574.652003,34.5755598 572.302003,39.4635598 C570.662003,42.8635598 567.332003,44.8985598 563.812003,45.0295598 L563.332003,45.0475598 C563.332003,45.0475598 560.762003,45.1375598 555.942003,45.3105598 C551.142003,45.4295598 544.122003,45.7755598 535.412003,46.3965598 C526.702003,47.1485598 516.262003,48.1565598 504.922003,50.2985598 C493.612003,52.4885598 481.372003,55.6985598 469.852003,60.7525598 C466.982003,61.9945598 464.222003,63.4745598 461.432003,64.8645598 C458.832003,66.5535598 456.002003,67.8785598 453.612003,69.7995598 C448.582003,73.0635598 443.912003,77.3655598 440.342003,81.2975598 C439.732003,82.1985598 439.112003,83.0465598 438.482003,83.8335598 L434.402003,88.6305598 L433.292003,89.9445598 L432.732003,90.6005598 L432.452003,90.9285598 L432.312003,91.0905598 C432.162003,91.2255598 432.602003,90.8465598 433.032003,90.4675598 C433.592003,89.9795598 434.162003,89.4915598 433.482003,90.0995598 L431.842003,92.5695598 L428.542003,97.5155598 C423.552003,105.11256 418.462003,112.86956 413.282003,120.75856 C407.772003,128.94456 401.912003,137.45356 394.912003,145.58656 C393.142003,147.63356 391.362003,149.68656 389.512003,151.66756 L386.732003,154.68656 L383.432003,157.88456 C381.262003,160.05056 378.962003,162.10956 376.702003,164.19856 C375.602003,165.20056 374.332003,166.39456 373.332003,167.18156 L370.382003,169.55656 C368.432003,171.16156 366.372003,172.63556 364.372003,174.18756 L362.852003,175.34456 L362.662003,175.48756 C361.282003,176.62056 361.382003,176.53456 361.472003,176.44756 C361.532003,176.40056 361.582003,176.35356 361.392003,176.50856 L360.902003,176.84856 L356.032003,180.20156 C350.802003,183.77056 345.362003,187.23156 339.602003,190.50056 C328.162003,197.04056 315.692003,203.04356 302.042003,207.44756 C288.372003,211.82756 273.562003,214.68556 258.552003,215.23456 C243.532003,215.71156 228.492003,213.74856 214.822003,209.86956 C201.052003,206.12856 188.782003,200.42356 177.802003,194.17056 C166.922003,187.81556 157.232003,180.94156 148.632003,173.75156 C131.402003,159.43656 117.732003,144.61456 105.612003,130.68756 C93.6420027,116.61656 83.2420027,103.38156 73.6120027,91.5795598 C64.0620027,79.7045598 55.5420027,69.0355598 47.5420027,60.2645598 C39.6120027,51.4205598 32.5020027,44.1285598 26.2220027,38.7945598 C20.0520027,33.4115598 14.6520027,29.5575598 11.1920027,27.3555598 C9.60200269,26.2395598 7.85200269,25.2855598 6.74200269,24.6885598 C5.63200269,24.0795598 5.06200269,23.7635598 5.06200269,23.7635598 C0.332002692,21.1555598 -1.38799731,15.2125598 1.21200269,10.4865598 C3.18200269,6.90655983 7.08200269,5.05055983 10.9220027,5.49855983" id="Fill-16"></path>
            </g>
        </g>
    </g>
</svg>